<?xml version="1.0" encoding="utf-8" ?>
<svg xmlns="http://www.w3.org/2000/svg" xmlns:ev="http://www.w3.org/2001/xml-events" xmlns:xlink="http://www.w3.org/1999/xlink" baseProfile="full" height="500" version="1.1" viewBox="0,0,85.33333333333333,41.666666666666664" width="1024">
    <defs/>
    <rect fill="white" height="41.666666666666664" stroke="black" stroke-width="0.1" width="85.33333333333333" x="0" y="0"/>
    <linearGradient gradientUnits="objectBoundingBox" id="id1" x1="1.0" x2="0.0" y1="0.0" y2="1.0">
        <stop offset="0%" stop-color="#4d4d4d"/>
        <stop offset="100%" stop-color="#0f0f0f"/>
    </linearGradient>
    <rect fill="url(#id1) none" height="23.9" stroke="#b5a739" stroke-width="0.1" width="15.9" x="34.66666666666666" y="8.883333333333333"/>
    <linearGradient gradientUnits="objectBoundingBox" id="id2" x1="1.0" x2="0.0" y1="0.0" y2="1.0">
        <stop offset="0%" stop-color="whitesmoke"/>
        <stop offset="100%" stop-color="#999"/>
    </linearGradient>
    <rect fill="url(#id2) none" height="16.8" rx="0.5" ry="0.5" width="13.6" x="35.81666666666666" y="15.783333333333331"/>
    <rect fill="#e5b472" height="1.2" id="esp12s.front.left.pin1.trace" width="0.7" x="34.61666666666666" y="16.733333333333334"/>
    <circle cx="34.61666666666666" cy="17.333333333333332" fill="#fff" id="esp12s.front.left.pin1.cast" r="0.35"/>
    <rect fill="#e5b472" height="1.2" id="esp12s.front.left.pin2.trace" width="0.7" x="34.61666666666666" y="18.733333333333334"/>
    <circle cx="34.61666666666666" cy="19.333333333333332" fill="#fff" id="esp12s.front.left.pin2.cast" r="0.35"/>
    <rect fill="#e5b472" height="1.2" id="esp12s.front.left.pin3.trace" width="0.7" x="34.61666666666666" y="20.733333333333334"/>
    <circle cx="34.61666666666666" cy="21.333333333333332" fill="#fff" id="esp12s.front.left.pin3.cast" r="0.35"/>
    <rect fill="#e5b472" height="1.2" id="esp12s.front.left.pin4.trace" width="0.7" x="34.61666666666666" y="22.733333333333334"/>
    <circle cx="34.61666666666666" cy="23.333333333333332" fill="#fff" id="esp12s.front.left.pin4.cast" r="0.35"/>
    <rect fill="#e5b472" height="1.2" id="esp12s.front.left.pin5.trace" width="0.7" x="34.61666666666666" y="24.733333333333334"/>
    <circle cx="34.61666666666666" cy="25.333333333333332" fill="#fff" id="esp12s.front.left.pin5.cast" r="0.35"/>
    <rect fill="#e5b472" height="1.2" id="esp12s.front.left.pin6.trace" width="0.7" x="34.61666666666666" y="26.73333333333333"/>
    <circle cx="34.61666666666666" cy="27.333333333333332" fill="#fff" id="esp12s.front.left.pin6.cast" r="0.35"/>
    <rect fill="#e5b472" height="1.2" id="esp12s.front.left.pin7.trace" width="0.7" x="34.61666666666666" y="28.73333333333333"/>
    <circle cx="34.61666666666666" cy="29.333333333333332" fill="#fff" id="esp12s.front.left.pin7.cast" r="0.35"/>
    <rect fill="#e5b472" height="1.2" id="esp12s.front.left.pin8.trace" width="0.7" x="34.61666666666666" y="30.73333333333333"/>
    <circle cx="34.61666666666666" cy="31.333333333333332" fill="#fff" id="esp12s.front.left.pin8.cast" r="0.35"/>
    <rect fill="#e5b472" height="1.2" id="esp12s.front.right.pin1.trace" width="0.7" x="49.91666666666666" y="16.733333333333334"/>
    <circle cx="50.61666666666666" cy="17.333333333333332" fill="#fff" id="esp12s.front.right.pin1.cast" r="0.35"/>
    <rect fill="#e5b472" height="1.2" id="esp12s.front.right.pin2.trace" width="0.7" x="49.91666666666666" y="18.733333333333334"/>
    <circle cx="50.61666666666666" cy="19.333333333333332" fill="#fff" id="esp12s.front.right.pin2.cast" r="0.35"/>
    <rect fill="#e5b472" height="1.2" id="esp12s.front.right.pin3.trace" width="0.7" x="49.91666666666666" y="20.733333333333334"/>
    <circle cx="50.61666666666666" cy="21.333333333333332" fill="#fff" id="esp12s.front.right.pin3.cast" r="0.35"/>
    <rect fill="#e5b472" height="1.2" id="esp12s.front.right.pin4.trace" width="0.7" x="49.91666666666666" y="22.733333333333334"/>
    <circle cx="50.61666666666666" cy="23.333333333333332" fill="#fff" id="esp12s.front.right.pin4.cast" r="0.35"/>
    <rect fill="#e5b472" height="1.2" id="esp12s.front.right.pin5.trace" width="0.7" x="49.91666666666666" y="24.733333333333334"/>
    <circle cx="50.61666666666666" cy="25.333333333333332" fill="#fff" id="esp12s.front.right.pin5.cast" r="0.35"/>
    <rect fill="#e5b472" height="1.2" id="esp12s.front.right.pin6.trace" width="0.7" x="49.91666666666666" y="26.73333333333333"/>
    <circle cx="50.61666666666666" cy="27.333333333333332" fill="#fff" id="esp12s.front.right.pin6.cast" r="0.35"/>
    <rect fill="#e5b472" height="1.2" id="esp12s.front.right.pin7.trace" width="0.7" x="49.91666666666666" y="28.73333333333333"/>
    <circle cx="50.61666666666666" cy="29.333333333333332" fill="#fff" id="esp12s.front.right.pin7.cast" r="0.35"/>
    <rect fill="#e5b472" height="1.2" id="esp12s.front.right.pin8.trace" width="0.7" x="49.91666666666666" y="30.73333333333333"/>
    <circle cx="50.61666666666666" cy="31.333333333333332" fill="#fff" id="esp12s.front.right.pin8.cast" r="0.35"/>
    <rect fill="#fff" height="0.15" width="15.0" x="35.11666666666666" y="15.033333333333331"/>
    <text fill="#fff" font-family="Consolas" font-size="1.0" x="41.61666666666666" y="14.333333333333332">WR3N</text>
    <rect fill="#505050" height="5.2" width="0.5" x="35.71666666666666" y="9.633333333333333"/>
    <rect fill="#505050" height="0.5" width="4.6" x="35.71666666666666" y="9.633333333333333"/>
    <rect fill="#505050" height="5.2" width="0.5" x="37.91666666666666" y="9.633333333333333"/>
    <rect fill="#505050" height="3.0" width="0.5" x="39.81666666666666" y="9.633333333333333"/>
    <rect fill="#505050" height="0.5" width="3.0" x="39.81666666666666" y="12.133333333333333"/>
    <rect fill="#505050" height="3.0" width="0.5" x="42.31666666666666" y="9.633333333333333"/>
    <rect fill="#505050" height="0.5" width="2.7" x="42.31666666666666" y="9.633333333333333"/>
    <rect fill="#505050" height="3.0" width="0.5" x="44.51666666666666" y="9.633333333333333"/>
    <rect fill="#505050" height="0.5" width="3.0" x="44.51666666666666" y="12.133333333333333"/>
    <rect fill="#505050" height="3.0" width="0.5" x="47.01666666666666" y="9.633333333333333"/>
    <rect fill="#505050" height="0.5" width="2.5" x="47.01666666666666" y="9.633333333333333"/>
    <rect fill="#505050" height="4.4" width="0.5" x="49.01666666666666" y="9.633333333333333"/>
    <rect fill="#4e4c4c" height="0.2" width="2.6" x="31.51666666666666" y="17.23333333333333"/>
    <rect fill="#4e4c4c" height="0.2" width="2.6" x="31.51666666666666" y="19.23333333333333"/>
    <g transform="translate(27.731026020611555,18.53333333333333)">
        <rect fill="#8ad039" height="1.6" rx="0.3" ry="0.3" transform="skewX(-15)" width="3.4" x="0" y="0"/>
    </g>
    <text dominant-baseline="central" fill="#423F42" font-family="Consolas" font-size="1.2" text-anchor="middle" x="29.216666666666658" y="19.333333333333332">ADC2</text>
    <g transform="translate(24.73102602061156,18.53333333333333)">
        <rect fill="#16a352" height="1.6" rx="0.3" ry="0.3" transform="skewX(-15)" width="2.8" x="0" y="0"/>
    </g>
    <text dominant-baseline="central" fill="white" font-family="Consolas" font-size="1.2" text-anchor="middle" x="25.91666666666666" y="19.333333333333332">A1</text>
    <rect fill="#4e4c4c" height="0.2" width="2.6" x="31.51666666666666" y="21.23333333333333"/>
    <g transform="translate(27.731026020611555,20.53333333333333)">
        <rect fill="#ed602e" height="1.6" rx="0.3" ry="0.3" transform="skewX(-15)" width="3.4" x="0" y="0"/>
    </g>
    <text dominant-baseline="central" fill="#423F42" font-family="Consolas" font-size="1.2" text-anchor="middle" x="29.216666666666658" y="21.333333333333332">CEN</text>
    <rect fill="#4e4c4c" height="0.2" width="2.6" x="31.51666666666666" y="23.23333333333333"/>
    <g transform="translate(27.731026020611555,22.53333333333333)">
        <rect fill="#800000" height="1.6" rx="0.3" ry="0.3" transform="skewX(-15)" width="3.4" x="0" y="0"/>
    </g>
    <text dominant-baseline="central" fill="white" font-family="Consolas" font-size="1.2" text-anchor="middle" x="29.216666666666658" y="23.333333333333332">PA29</text>
    <g transform="translate(24.73102602061156,22.53333333333333)">
        <rect fill="#99188d" height="1.6" rx="0.3" ry="0.3" transform="skewX(-15)" width="2.8" x="0" y="0"/>
    </g>
    <text dominant-baseline="central" fill="white" font-family="Consolas" font-size="1.2" text-anchor="middle" x="25.91666666666666" y="23.333333333333332">D0</text>
    <g transform="translate(21.131026020611557,22.53333333333333)">
        <rect fill="#dcd4ee" height="1.6" rx="0.3" ry="0.3" transform="skewX(-15)" width="3.4" x="0" y="0"/>
    </g>
    <text dominant-baseline="central" fill="#423F42" font-family="Consolas" font-size="1.2" text-anchor="middle" x="22.61666666666666" y="23.333333333333332">RX2</text>
    <g transform="translate(17.53102602061156,22.53333333333333)">
        <rect fill="#f95" height="1.6" rx="0.3" ry="0.3" transform="skewX(-15)" width="3.4" x="0" y="0"/>
    </g>
    <text dominant-baseline="central" fill="#423F42" font-family="Consolas" font-size="1.2" text-anchor="middle" x="19.016666666666662" y="23.333333333333332">SCL0</text>
    <g transform="translate(13.93102602061156,22.53333333333333)">
        <rect fill="#afa35e" height="1.6" rx="0.3" ry="0.3" transform="skewX(-15)" width="3.4" x="0" y="0"/>
    </g>
    <text dominant-baseline="central" fill="#423F42" font-family="Consolas" font-size="1.2" text-anchor="middle" x="15.41666666666666" y="23.333333333333332">PWM4</text>
    <rect fill="#4e4c4c" height="0.2" width="2.6" x="31.51666666666666" y="25.23333333333333"/>
    <g transform="translate(27.731026020611555,24.53333333333333)">
        <rect fill="#800000" height="1.6" rx="0.3" ry="0.3" transform="skewX(-15)" width="3.4" x="0" y="0"/>
    </g>
    <text dominant-baseline="central" fill="white" font-family="Consolas" font-size="1.2" text-anchor="middle" x="29.216666666666658" y="25.333333333333332">PA14</text>
    <g transform="translate(24.73102602061156,24.53333333333333)">
        <rect fill="#99188d" height="1.6" rx="0.3" ry="0.3" transform="skewX(-15)" width="2.8" x="0" y="0"/>
    </g>
    <text dominant-baseline="central" fill="white" font-family="Consolas" font-size="1.2" text-anchor="middle" x="25.91666666666666" y="25.333333333333332">D1</text>
    <g transform="translate(21.131026020611557,24.53333333333333)">
        <rect fill="#afa35e" height="1.6" rx="0.3" ry="0.3" transform="skewX(-15)" width="3.4" x="0" y="0"/>
    </g>
    <text dominant-baseline="central" fill="#423F42" font-family="Consolas" font-size="1.2" text-anchor="middle" x="22.61666666666666" y="25.333333333333332">PWM0</text>
    <g transform="translate(17.53102602061156,24.53333333333333)">
        <rect fill="#ffe680" height="1.6" rx="0.3" ry="0.3" transform="skewX(-15)" width="3.4" x="0" y="0"/>
    </g>
    <text dominant-baseline="central" fill="#423F42" font-family="Consolas" font-size="1.2" text-anchor="middle" x="19.016666666666662" y="25.333333333333332">SWCLK</text>
    <rect fill="#4e4c4c" height="0.2" width="2.6" x="31.51666666666666" y="27.23333333333333"/>
    <g transform="translate(27.731026020611555,26.53333333333333)">
        <rect fill="#800000" height="1.6" rx="0.3" ry="0.3" transform="skewX(-15)" width="3.4" x="0" y="0"/>
    </g>
    <text dominant-baseline="central" fill="white" font-family="Consolas" font-size="1.2" text-anchor="middle" x="29.216666666666658" y="27.333333333333332">PA15</text>
    <g transform="translate(24.73102602061156,26.53333333333333)">
        <rect fill="#99188d" height="1.6" rx="0.3" ry="0.3" transform="skewX(-15)" width="2.8" x="0" y="0"/>
    </g>
    <text dominant-baseline="central" fill="white" font-family="Consolas" font-size="1.2" text-anchor="middle" x="25.91666666666666" y="27.333333333333332">D2</text>
    <g transform="translate(21.131026020611557,26.53333333333333)">
        <rect fill="#afa35e" height="1.6" rx="0.3" ry="0.3" transform="skewX(-15)" width="3.4" x="0" y="0"/>
    </g>
    <text dominant-baseline="central" fill="#423F42" font-family="Consolas" font-size="1.2" text-anchor="middle" x="22.61666666666666" y="27.333333333333332">PWM1</text>
    <g transform="translate(17.53102602061156,26.53333333333333)">
        <rect fill="#ffe680" height="1.6" rx="0.3" ry="0.3" transform="skewX(-15)" width="3.4" x="0" y="0"/>
    </g>
    <text dominant-baseline="central" fill="#423F42" font-family="Consolas" font-size="1.2" text-anchor="middle" x="19.016666666666662" y="27.333333333333332">SWDIO</text>
    <rect fill="#4e4c4c" height="0.2" width="2.6" x="31.51666666666666" y="29.23333333333333"/>
    <g transform="translate(27.731026020611555,28.53333333333333)">
        <rect fill="#800000" height="1.6" rx="0.3" ry="0.3" transform="skewX(-15)" width="3.4" x="0" y="0"/>
    </g>
    <text dominant-baseline="central" fill="white" font-family="Consolas" font-size="1.2" text-anchor="middle" x="29.216666666666658" y="29.333333333333332">PA00</text>
    <g transform="translate(24.73102602061156,28.53333333333333)">
        <rect fill="#99188d" height="1.6" rx="0.3" ry="0.3" transform="skewX(-15)" width="2.8" x="0" y="0"/>
    </g>
    <text dominant-baseline="central" fill="white" font-family="Consolas" font-size="1.2" text-anchor="middle" x="25.91666666666666" y="29.333333333333332">D3</text>
    <g transform="translate(21.131026020611557,28.53333333333333)">
        <rect fill="#afa35e" height="1.6" rx="0.3" ry="0.3" transform="skewX(-15)" width="3.4" x="0" y="0"/>
    </g>
    <text dominant-baseline="central" fill="#423F42" font-family="Consolas" font-size="1.2" text-anchor="middle" x="22.61666666666666" y="29.333333333333332">PWM2</text>
    <rect fill="#4e4c4c" height="0.2" width="2.6" x="31.51666666666666" y="31.23333333333333"/>
    <g transform="translate(27.731026020611555,30.53333333333333)">
        <rect fill="#cd3c24" height="1.6" rx="0.3" ry="0.3" transform="skewX(-15)" width="3.4" x="0" y="0"/>
    </g>
    <text dominant-baseline="central" fill="white" font-family="Consolas" font-size="1.2" text-anchor="middle" x="29.216666666666658" y="31.333333333333332">3V3</text>
    <rect fill="#4e4c4c" height="0.2" width="2.6" x="51.11666666666666" y="31.23333333333333"/>
    <g transform="translate(54.53102602061156,30.53333333333333)">
        <rect fill="#000" height="1.6" rx="0.3" ry="0.3" transform="skewX(-15)" width="3.4" x="0" y="0"/>
    </g>
    <text dominant-baseline="central" fill="white" font-family="Consolas" font-size="1.2" text-anchor="middle" x="56.016666666666666" y="31.333333333333332">GND</text>
    <rect fill="#4e4c4c" height="0.2" width="2.6" x="51.11666666666666" y="29.23333333333333"/>
    <rect fill="#4e4c4c" height="0.2" width="2.6" x="51.11666666666666" y="27.23333333333333"/>
    <g transform="translate(54.53102602061156,26.53333333333333)">
        <rect fill="#800000" height="1.6" rx="0.3" ry="0.3" transform="skewX(-15)" width="3.4" x="0" y="0"/>
    </g>
    <text dominant-baseline="central" fill="white" font-family="Consolas" font-size="1.2" text-anchor="middle" x="56.016666666666666" y="27.333333333333332">PA30</text>
    <g transform="translate(58.131026020611564,26.53333333333333)">
        <rect fill="#99188d" height="1.6" rx="0.3" ry="0.3" transform="skewX(-15)" width="2.8" x="0" y="0"/>
    </g>
    <text dominant-baseline="central" fill="white" font-family="Consolas" font-size="1.2" text-anchor="middle" x="59.31666666666666" y="27.333333333333332">D4</text>
    <g transform="translate(61.131026020611564,26.53333333333333)">
        <rect fill="#dcd4ee" height="1.6" rx="0.3" ry="0.3" transform="skewX(-15)" width="3.4" x="0" y="0"/>
    </g>
    <text dominant-baseline="central" fill="#423F42" font-family="Consolas" font-size="1.2" text-anchor="middle" x="62.61666666666667" y="27.333333333333332">TX2</text>
    <g transform="translate(64.73102602061155,26.53333333333333)">
        <rect fill="#f95" height="1.6" rx="0.3" ry="0.3" transform="skewX(-15)" width="3.4" x="0" y="0"/>
    </g>
    <text dominant-baseline="central" fill="#423F42" font-family="Consolas" font-size="1.2" text-anchor="middle" x="66.21666666666665" y="27.333333333333332">SDA0</text>
    <g transform="translate(68.33102602061156,26.53333333333333)">
        <rect fill="#afa35e" height="1.6" rx="0.3" ry="0.3" transform="skewX(-15)" width="3.4" x="0" y="0"/>
    </g>
    <text dominant-baseline="central" fill="#423F42" font-family="Consolas" font-size="1.2" text-anchor="middle" x="69.81666666666666" y="27.333333333333332">PWM4</text>
    <rect fill="#4e4c4c" height="0.2" width="2.6" x="51.11666666666666" y="25.23333333333333"/>
    <rect fill="#4e4c4c" height="0.2" width="2.6" x="51.11666666666666" y="23.23333333333333"/>
    <g transform="translate(54.53102602061156,22.53333333333333)">
        <rect fill="#800000" height="1.6" rx="0.3" ry="0.3" transform="skewX(-15)" width="3.4" x="0" y="0"/>
    </g>
    <text dominant-baseline="central" fill="white" font-family="Consolas" font-size="1.2" text-anchor="middle" x="56.016666666666666" y="23.333333333333332">PA05</text>
    <g transform="translate(58.131026020611564,22.53333333333333)">
        <rect fill="#99188d" height="1.6" rx="0.3" ry="0.3" transform="skewX(-15)" width="2.8" x="0" y="0"/>
    </g>
    <text dominant-baseline="central" fill="white" font-family="Consolas" font-size="1.2" text-anchor="middle" x="59.31666666666666" y="23.333333333333332">D5</text>
    <g transform="translate(61.131026020611564,22.53333333333333)">
        <rect fill="#afa35e" height="1.6" rx="0.3" ry="0.3" transform="skewX(-15)" width="3.4" x="0" y="0"/>
    </g>
    <text dominant-baseline="central" fill="#423F42" font-family="Consolas" font-size="1.2" text-anchor="middle" x="62.61666666666667" y="23.333333333333332">PWM4</text>
    <rect fill="#4e4c4c" height="0.2" width="2.6" x="51.11666666666666" y="21.23333333333333"/>
    <g transform="translate(54.53102602061156,20.53333333333333)">
        <rect fill="#800000" height="1.6" rx="0.3" ry="0.3" transform="skewX(-15)" width="3.4" x="0" y="0"/>
    </g>
    <text dominant-baseline="central" fill="white" font-family="Consolas" font-size="1.2" text-anchor="middle" x="56.016666666666666" y="21.333333333333332">PA12</text>
    <g transform="translate(58.131026020611564,20.53333333333333)">
        <rect fill="#99188d" height="1.6" rx="0.3" ry="0.3" transform="skewX(-15)" width="2.8" x="0" y="0"/>
    </g>
    <text dominant-baseline="central" fill="white" font-family="Consolas" font-size="1.2" text-anchor="middle" x="59.31666666666666" y="21.333333333333332">D6</text>
    <g transform="translate(61.131026020611564,20.53333333333333)">
        <rect fill="#afa35e" height="1.6" rx="0.3" ry="0.3" transform="skewX(-15)" width="3.4" x="0" y="0"/>
    </g>
    <text dominant-baseline="central" fill="#423F42" font-family="Consolas" font-size="1.2" text-anchor="middle" x="62.61666666666667" y="21.333333333333332">PWM3</text>
    <rect fill="#4e4c4c" height="0.2" width="2.6" x="51.11666666666666" y="19.23333333333333"/>
    <g transform="translate(54.53102602061156,18.53333333333333)">
        <rect fill="#800000" height="1.6" rx="0.3" ry="0.3" transform="skewX(-15)" width="3.4" x="0" y="0"/>
    </g>
    <text dominant-baseline="central" fill="white" font-family="Consolas" font-size="1.2" text-anchor="middle" x="56.016666666666666" y="19.333333333333332">PA18</text>
    <g transform="translate(58.131026020611564,18.53333333333333)">
        <rect fill="#99188d" height="1.6" rx="0.3" ry="0.3" transform="skewX(-15)" width="2.8" x="0" y="0"/>
    </g>
    <text dominant-baseline="central" fill="white" font-family="Consolas" font-size="1.2" text-anchor="middle" x="59.31666666666666" y="19.333333333333332">D7</text>
    <g transform="translate(61.131026020611564,18.53333333333333)">
        <rect fill="#dcd4ee" height="1.6" rx="0.3" ry="0.3" transform="skewX(-15)" width="3.4" x="0" y="0"/>
    </g>
    <text dominant-baseline="central" fill="#423F42" font-family="Consolas" font-size="1.2" text-anchor="middle" x="62.61666666666667" y="19.333333333333332">RX0</text>
    <g transform="translate(64.73102602061155,18.53333333333333)">
        <rect fill="#f95" height="1.6" rx="0.3" ry="0.3" transform="skewX(-15)" width="3.4" x="0" y="0"/>
    </g>
    <text dominant-baseline="central" fill="#423F42" font-family="Consolas" font-size="1.2" text-anchor="middle" x="66.21666666666665" y="19.333333333333332">SCL1</text>
    <rect fill="#4e4c4c" height="0.2" width="2.6" x="51.11666666666666" y="17.23333333333333"/>
    <g transform="translate(54.53102602061156,16.53333333333333)">
        <rect fill="#800000" height="1.6" rx="0.3" ry="0.3" transform="skewX(-15)" width="3.4" x="0" y="0"/>
    </g>
    <text dominant-baseline="central" fill="white" font-family="Consolas" font-size="1.2" text-anchor="middle" x="56.016666666666666" y="17.333333333333332">PA23</text>
    <g transform="translate(58.131026020611564,16.53333333333333)">
        <rect fill="#99188d" height="1.6" rx="0.3" ry="0.3" transform="skewX(-15)" width="2.8" x="0" y="0"/>
    </g>
    <text dominant-baseline="central" fill="white" font-family="Consolas" font-size="1.2" text-anchor="middle" x="59.31666666666666" y="17.333333333333332">D8</text>
    <g transform="translate(61.131026020611564,16.53333333333333)">
        <rect fill="#dcd4ee" height="1.6" rx="0.3" ry="0.3" transform="skewX(-15)" width="3.4" x="0" y="0"/>
    </g>
    <text dominant-baseline="central" fill="#423F42" font-family="Consolas" font-size="1.2" text-anchor="middle" x="62.61666666666667" y="17.333333333333332">TX0</text>
    <g transform="translate(64.73102602061155,16.53333333333333)">
        <rect fill="#f95" height="1.6" rx="0.3" ry="0.3" transform="skewX(-15)" width="3.4" x="0" y="0"/>
    </g>
    <text dominant-baseline="central" fill="#423F42" font-family="Consolas" font-size="1.2" text-anchor="middle" x="66.21666666666665" y="17.333333333333332">SDA1</text>
    <g transform="translate(68.33102602061156,16.53333333333333)">
        <rect fill="#afa35e" height="1.6" rx="0.3" ry="0.3" transform="skewX(-15)" width="3.4" x="0" y="0"/>
    </g>
    <text dominant-baseline="central" fill="#423F42" font-family="Consolas" font-size="1.2" text-anchor="middle" x="69.81666666666666" y="17.333333333333332">PWM0</text>
</svg>
