<?xml version="1.0" encoding="utf-8" ?>
<svg xmlns="http://www.w3.org/2000/svg" xmlns:ev="http://www.w3.org/2001/xml-events" xmlns:xlink="http://www.w3.org/1999/xlink" baseProfile="full" height="500" version="1.1" viewBox="0,0,85.33333333333333,41.666666666666664" width="1024">
    <defs/>
    <rect fill="white" height="41.666666666666664" stroke="black" stroke-width="0.1" width="85.33333333333333" x="0" y="0"/>
    <linearGradient gradientUnits="objectBoundingBox" id="id1" x1="1.0" x2="0.0" y1="0.0" y2="1.0">
        <stop offset="0%" stop-color="#47a8cd"/>
        <stop offset="100%" stop-color="#008fb5"/>
    </linearGradient>
    <rect fill="url(#id1) none" height="23.9" stroke="#b5a739" stroke-width="0.1" width="15.9" x="36.16666666666666" y="5.433333333333331"/>
    <linearGradient gradientUnits="objectBoundingBox" id="id2" x1="1.0" x2="0.0" y1="0.0" y2="1.0">
        <stop offset="0%" stop-color="whitesmoke"/>
        <stop offset="100%" stop-color="#999"/>
    </linearGradient>
    <rect fill="url(#id2) none" height="15.8" rx="0.5" ry="0.5" width="13.6" x="37.31666666666666" y="12.333333333333332"/>
    <rect fill="#e5b472" height="1.2" id="esp12e-22.front.left.pin1.trace" width="0.7" x="36.11666666666666" y="13.283333333333331"/>
    <circle cx="36.11666666666666" cy="13.883333333333331" fill="#fff" id="esp12e-22.front.left.pin1.cast" r="0.35"/>
    <rect fill="#e5b472" height="1.2" id="esp12e-22.front.left.pin2.trace" width="0.7" x="36.11666666666666" y="15.283333333333331"/>
    <circle cx="36.11666666666666" cy="15.883333333333331" fill="#fff" id="esp12e-22.front.left.pin2.cast" r="0.35"/>
    <rect fill="#e5b472" height="1.2" id="esp12e-22.front.left.pin3.trace" width="0.7" x="36.11666666666666" y="17.28333333333333"/>
    <circle cx="36.11666666666666" cy="17.883333333333333" fill="#fff" id="esp12e-22.front.left.pin3.cast" r="0.35"/>
    <rect fill="#e5b472" height="1.2" id="esp12e-22.front.left.pin4.trace" width="0.7" x="36.11666666666666" y="19.28333333333333"/>
    <circle cx="36.11666666666666" cy="19.883333333333333" fill="#fff" id="esp12e-22.front.left.pin4.cast" r="0.35"/>
    <rect fill="#e5b472" height="1.2" id="esp12e-22.front.left.pin5.trace" width="0.7" x="36.11666666666666" y="21.28333333333333"/>
    <circle cx="36.11666666666666" cy="21.883333333333333" fill="#fff" id="esp12e-22.front.left.pin5.cast" r="0.35"/>
    <rect fill="#e5b472" height="1.2" id="esp12e-22.front.left.pin6.trace" width="0.7" x="36.11666666666666" y="23.28333333333333"/>
    <circle cx="36.11666666666666" cy="23.883333333333333" fill="#fff" id="esp12e-22.front.left.pin6.cast" r="0.35"/>
    <rect fill="#e5b472" height="1.2" id="esp12e-22.front.left.pin7.trace" width="0.7" x="36.11666666666666" y="25.28333333333333"/>
    <circle cx="36.11666666666666" cy="25.883333333333333" fill="#fff" id="esp12e-22.front.left.pin7.cast" r="0.35"/>
    <rect fill="#e5b472" height="1.2" id="esp12e-22.front.left.pin8.trace" width="0.7" x="36.11666666666666" y="27.28333333333333"/>
    <circle cx="36.11666666666666" cy="27.883333333333333" fill="#fff" id="esp12e-22.front.left.pin8.cast" r="0.35"/>
    <rect fill="#e5b472" height="1.2" id="esp12e-22.front.right.pin1.trace" width="0.7" x="51.41666666666666" y="13.283333333333331"/>
    <circle cx="52.11666666666666" cy="13.883333333333331" fill="#fff" id="esp12e-22.front.right.pin1.cast" r="0.35"/>
    <rect fill="#e5b472" height="1.2" id="esp12e-22.front.right.pin2.trace" width="0.7" x="51.41666666666666" y="15.283333333333331"/>
    <circle cx="52.11666666666666" cy="15.883333333333331" fill="#fff" id="esp12e-22.front.right.pin2.cast" r="0.35"/>
    <rect fill="#e5b472" height="1.2" id="esp12e-22.front.right.pin3.trace" width="0.7" x="51.41666666666666" y="17.28333333333333"/>
    <circle cx="52.11666666666666" cy="17.883333333333333" fill="#fff" id="esp12e-22.front.right.pin3.cast" r="0.35"/>
    <rect fill="#e5b472" height="1.2" id="esp12e-22.front.right.pin4.trace" width="0.7" x="51.41666666666666" y="19.28333333333333"/>
    <circle cx="52.11666666666666" cy="19.883333333333333" fill="#fff" id="esp12e-22.front.right.pin4.cast" r="0.35"/>
    <rect fill="#e5b472" height="1.2" id="esp12e-22.front.right.pin5.trace" width="0.7" x="51.41666666666666" y="21.28333333333333"/>
    <circle cx="52.11666666666666" cy="21.883333333333333" fill="#fff" id="esp12e-22.front.right.pin5.cast" r="0.35"/>
    <rect fill="#e5b472" height="1.2" id="esp12e-22.front.right.pin6.trace" width="0.7" x="51.41666666666666" y="23.28333333333333"/>
    <circle cx="52.11666666666666" cy="23.883333333333333" fill="#fff" id="esp12e-22.front.right.pin6.cast" r="0.35"/>
    <rect fill="#e5b472" height="1.2" id="esp12e-22.front.right.pin7.trace" width="0.7" x="51.41666666666666" y="25.28333333333333"/>
    <circle cx="52.11666666666666" cy="25.883333333333333" fill="#fff" id="esp12e-22.front.right.pin7.cast" r="0.35"/>
    <rect fill="#e5b472" height="1.2" id="esp12e-22.front.right.pin8.trace" width="0.7" x="51.41666666666666" y="27.28333333333333"/>
    <circle cx="52.11666666666666" cy="27.883333333333333" fill="#fff" id="esp12e-22.front.right.pin8.cast" r="0.35"/>
    <rect fill="#e5b472" height="0.7" id="r_pins_horz.pin1.trace" width="1.2" x="38.51666666666666" y="28.68333333333333"/>
    <circle cx="39.11666666666666" cy="29.383333333333333" fill="#fff" id="r_pins_horz.pin1.cast" r="0.35"/>
    <rect fill="#e5b472" height="0.7" id="r_pins_horz.pin2.trace" width="1.2" x="40.51666666666666" y="28.68333333333333"/>
    <circle cx="41.11666666666666" cy="29.383333333333333" fill="#fff" id="r_pins_horz.pin2.cast" r="0.35"/>
    <rect fill="#e5b472" height="0.7" id="r_pins_horz.pin3.trace" width="1.2" x="42.51666666666666" y="28.68333333333333"/>
    <circle cx="43.11666666666666" cy="29.383333333333333" fill="#fff" id="r_pins_horz.pin3.cast" r="0.35"/>
    <rect fill="#e5b472" height="0.7" id="r_pins_horz.pin4.trace" width="1.2" x="44.51666666666666" y="28.68333333333333"/>
    <circle cx="45.11666666666666" cy="29.383333333333333" fill="#fff" id="r_pins_horz.pin4.cast" r="0.35"/>
    <rect fill="#e5b472" height="0.7" id="r_pins_horz.pin5.trace" width="1.2" x="46.51666666666666" y="28.68333333333333"/>
    <circle cx="47.11666666666666" cy="29.383333333333333" fill="#fff" id="r_pins_horz.pin5.cast" r="0.35"/>
    <rect fill="#e5b472" height="0.7" id="r_pins_horz.pin6.trace" width="1.2" x="48.51666666666666" y="28.68333333333333"/>
    <circle cx="49.11666666666666" cy="29.383333333333333" fill="#fff" id="r_pins_horz.pin6.cast" r="0.35"/>
    <rect fill="#4e4c4c" height="2.0" width="0.2" x="39.01666666666666" y="29.58333333333333"/>
    <rect fill="#4e4c4c" height="0.2" width="0.2" x="38.81666666666666" y="31.383333333333333"/>
    <rect height="0.0" id="esp12e-22.front.down.label1.anchor" width="0.0" x="75.43333333333332" y="36.86666666666667"/>
    <rect fill="#4e4c4c" height="4.0" width="0.2" x="41.01666666666666" y="29.58333333333333"/>
    <rect fill="#4e4c4c" height="0.2" width="2.2" x="38.81666666666666" y="33.38333333333333"/>
    <rect height="0.0" id="esp12e-22.front.down.label2.anchor" width="0.0" x="75.43333333333332" y="38.86666666666667"/>
    <rect fill="#4e4c4c" height="6.0" width="0.2" x="43.01666666666666" y="29.58333333333333"/>
    <rect fill="#4e4c4c" height="0.2" width="4.2" x="38.81666666666666" y="35.38333333333333"/>
    <rect height="0.0" id="esp12e-22.front.down.label3.anchor" width="0.0" x="75.43333333333332" y="40.86666666666667"/>
    <rect fill="#4e4c4c" height="6.0" width="0.2" x="45.01666666666666" y="29.58333333333333"/>
    <rect fill="#4e4c4c" height="0.2" width="4.2" x="45.11666666666666" y="35.38333333333333"/>
    <rect height="0.0" id="esp12e-22.front.down.label4.anchor" width="0.0" x="84.93333333333332" y="40.86666666666667"/>
    <rect fill="#4e4c4c" height="4.0" width="0.2" x="47.01666666666666" y="29.58333333333333"/>
    <rect fill="#4e4c4c" height="0.2" width="2.2" x="47.11666666666666" y="33.38333333333333"/>
    <rect height="0.0" id="esp12e-22.front.down.label5.anchor" width="0.0" x="84.93333333333332" y="38.86666666666667"/>
    <rect fill="#4e4c4c" height="2.0" width="0.2" x="49.01666666666666" y="29.58333333333333"/>
    <rect fill="#4e4c4c" height="0.2" width="0.2" x="49.11666666666666" y="31.383333333333333"/>
    <rect height="0.0" id="esp12e-22.front.down.label6.anchor" width="0.0" x="84.93333333333332" y="36.86666666666667"/>
    <rect fill="#fff" height="0.15" width="15.0" x="36.61666666666666" y="11.583333333333332"/>
    <text fill="#fff" font-family="Consolas" font-size="1.0" x="43.11666666666666" y="10.883333333333331">CB3S</text>
    <rect fill="#58839b" height="5.2" width="0.5" x="37.21666666666666" y="6.183333333333331"/>
    <rect fill="#58839b" height="0.5" width="4.6" x="37.21666666666666" y="6.183333333333331"/>
    <rect fill="#58839b" height="5.2" width="0.5" x="39.41666666666666" y="6.183333333333331"/>
    <rect fill="#58839b" height="3.0" width="0.5" x="41.31666666666666" y="6.183333333333331"/>
    <rect fill="#58839b" height="0.5" width="3.0" x="41.31666666666666" y="8.68333333333333"/>
    <rect fill="#58839b" height="3.0" width="0.5" x="43.81666666666666" y="6.183333333333331"/>
    <rect fill="#58839b" height="0.5" width="2.7" x="43.81666666666666" y="6.183333333333331"/>
    <rect fill="#58839b" height="3.0" width="0.5" x="46.01666666666666" y="6.183333333333331"/>
    <rect fill="#58839b" height="0.5" width="3.0" x="46.01666666666666" y="8.68333333333333"/>
    <rect fill="#58839b" height="3.0" width="0.5" x="48.51666666666666" y="6.183333333333331"/>
    <rect fill="#58839b" height="0.5" width="2.5" x="48.51666666666666" y="6.183333333333331"/>
    <rect fill="#58839b" height="4.4" width="0.5" x="50.51666666666666" y="6.183333333333331"/>
    <rect fill="#4e4c4c" height="0.2" width="2.6" x="33.01666666666666" y="13.783333333333331"/>
    <g transform="translate(29.231026020611555,13.08333333333333)">
        <rect fill="#ed602e" height="1.6" rx="0.3" ry="0.3" transform="skewX(-15)" width="3.4" x="0" y="0"/>
    </g>
    <text dominant-baseline="central" fill="#423F42" font-family="Consolas" font-size="1.2" text-anchor="middle" x="30.716666666666658" y="13.883333333333331">CEN</text>
    <rect fill="#4e4c4c" height="0.2" width="2.6" x="33.01666666666666" y="15.783333333333331"/>
    <g transform="translate(29.231026020611555,15.08333333333333)">
        <rect fill="#800000" height="1.6" rx="0.3" ry="0.3" transform="skewX(-15)" width="3.4" x="0" y="0"/>
    </g>
    <text dominant-baseline="central" fill="white" font-family="Consolas" font-size="1.2" text-anchor="middle" x="30.716666666666658" y="15.883333333333331">P23</text>
    <g transform="translate(25.631026020611557,15.08333333333333)">
        <rect fill="#8ad039" height="1.6" rx="0.3" ry="0.3" transform="skewX(-15)" width="3.4" x="0" y="0"/>
    </g>
    <text dominant-baseline="central" fill="#423F42" font-family="Consolas" font-size="1.2" text-anchor="middle" x="27.11666666666666" y="15.883333333333331">ADC3</text>
    <g transform="translate(22.631026020611557,15.08333333333333)">
        <rect fill="#99188d" height="1.6" rx="0.3" ry="0.3" transform="skewX(-15)" width="2.8" x="0" y="0"/>
    </g>
    <text dominant-baseline="central" fill="white" font-family="Consolas" font-size="1.2" text-anchor="middle" x="23.81666666666666" y="15.883333333333331">D0</text>
    <g transform="translate(19.631026020611557,15.08333333333333)">
        <rect fill="#16a352" height="1.6" rx="0.3" ry="0.3" transform="skewX(-15)" width="2.8" x="0" y="0"/>
    </g>
    <text dominant-baseline="central" fill="white" font-family="Consolas" font-size="1.2" text-anchor="middle" x="20.81666666666666" y="15.883333333333331">A0</text>
    <g transform="translate(16.031026020611556,15.08333333333333)">
        <rect fill="#ffe680" height="1.6" rx="0.3" ry="0.3" transform="skewX(-15)" width="3.4" x="0" y="0"/>
    </g>
    <text dominant-baseline="central" fill="#423F42" font-family="Consolas" font-size="1.2" text-anchor="middle" x="17.51666666666666" y="15.883333333333331">TDO</text>
    <g transform="translate(12.431026020611556,15.08333333333333)">
        <rect fill="#f68a1e" height="1.6" rx="0.3" ry="0.3" transform="skewX(-15)" width="3.4" x="0" y="0"/>
    </g>
    <text dominant-baseline="central" fill="#423F42" font-family="Consolas" font-size="1.2" text-anchor="middle" x="13.916666666666657" y="15.883333333333331">FSO</text>
    <rect fill="#4e4c4c" height="0.2" width="2.6" x="33.01666666666666" y="17.78333333333333"/>
    <g transform="translate(29.231026020611555,17.083333333333332)">
        <rect fill="#ed602e" height="1.6" rx="0.3" ry="0.3" transform="skewX(-15)" width="3.4" x="0" y="0"/>
    </g>
    <text dominant-baseline="central" fill="#423F42" font-family="Consolas" font-size="1.2" text-anchor="middle" x="30.716666666666658" y="17.883333333333333">CEN</text>
    <rect fill="#4e4c4c" height="0.2" width="2.6" x="33.01666666666666" y="19.78333333333333"/>
    <g transform="translate(29.231026020611555,19.083333333333332)">
        <rect fill="#800000" height="1.6" rx="0.3" ry="0.3" transform="skewX(-15)" width="3.4" x="0" y="0"/>
    </g>
    <text dominant-baseline="central" fill="white" font-family="Consolas" font-size="1.2" text-anchor="middle" x="30.716666666666658" y="19.883333333333333">P14</text>
    <g transform="translate(26.23102602061156,19.083333333333332)">
        <rect fill="#99188d" height="1.6" rx="0.3" ry="0.3" transform="skewX(-15)" width="2.8" x="0" y="0"/>
    </g>
    <text dominant-baseline="central" fill="white" font-family="Consolas" font-size="1.2" text-anchor="middle" x="27.41666666666666" y="19.883333333333333">D1</text>
    <rect fill="#4e4c4c" height="0.2" width="2.6" x="33.01666666666666" y="21.78333333333333"/>
    <g transform="translate(29.231026020611555,21.083333333333332)">
        <rect fill="#800000" height="1.6" rx="0.3" ry="0.3" transform="skewX(-15)" width="3.4" x="0" y="0"/>
    </g>
    <text dominant-baseline="central" fill="white" font-family="Consolas" font-size="1.2" text-anchor="middle" x="30.716666666666658" y="21.883333333333333">P26</text>
    <g transform="translate(26.23102602061156,21.083333333333332)">
        <rect fill="#99188d" height="1.6" rx="0.3" ry="0.3" transform="skewX(-15)" width="2.8" x="0" y="0"/>
    </g>
    <text dominant-baseline="central" fill="white" font-family="Consolas" font-size="1.2" text-anchor="middle" x="27.41666666666666" y="21.883333333333333">D2</text>
    <g transform="translate(22.631026020611557,21.083333333333332)">
        <rect fill="#aeafc1" height="1.6" rx="0.3" ry="0.3" transform="skewX(-15)" width="3.4" x="0" y="0"/>
    </g>
    <text dominant-baseline="central" fill="#423F42" font-family="Consolas" font-size="1.2" text-anchor="middle" x="24.11666666666666" y="21.883333333333333">IRDA</text>
    <g transform="translate(19.03102602061156,21.083333333333332)">
        <rect fill="#afa35e" height="1.6" rx="0.3" ry="0.3" transform="skewX(-15)" width="3.4" x="0" y="0"/>
    </g>
    <text dominant-baseline="central" fill="#423F42" font-family="Consolas" font-size="1.2" text-anchor="middle" x="20.516666666666662" y="21.883333333333333">PWM5</text>
    <rect fill="#4e4c4c" height="0.2" width="2.6" x="33.01666666666666" y="23.78333333333333"/>
    <g transform="translate(29.231026020611555,23.083333333333332)">
        <rect fill="#800000" height="1.6" rx="0.3" ry="0.3" transform="skewX(-15)" width="3.4" x="0" y="0"/>
    </g>
    <text dominant-baseline="central" fill="white" font-family="Consolas" font-size="1.2" text-anchor="middle" x="30.716666666666658" y="23.883333333333333">P24</text>
    <g transform="translate(26.23102602061156,23.083333333333332)">
        <rect fill="#99188d" height="1.6" rx="0.3" ry="0.3" transform="skewX(-15)" width="2.8" x="0" y="0"/>
    </g>
    <text dominant-baseline="central" fill="white" font-family="Consolas" font-size="1.2" text-anchor="middle" x="27.41666666666666" y="23.883333333333333">D3</text>
    <g transform="translate(22.631026020611557,23.083333333333332)">
        <rect fill="#afa35e" height="1.6" rx="0.3" ry="0.3" transform="skewX(-15)" width="3.4" x="0" y="0"/>
    </g>
    <text dominant-baseline="central" fill="#423F42" font-family="Consolas" font-size="1.2" text-anchor="middle" x="24.11666666666666" y="23.883333333333333">PWM4</text>
    <rect fill="#4e4c4c" height="0.2" width="2.6" x="33.01666666666666" y="25.78333333333333"/>
    <g transform="translate(29.231026020611555,25.083333333333332)">
        <rect fill="#800000" height="1.6" rx="0.3" ry="0.3" transform="skewX(-15)" width="3.4" x="0" y="0"/>
    </g>
    <text dominant-baseline="central" fill="white" font-family="Consolas" font-size="1.2" text-anchor="middle" x="30.716666666666658" y="25.883333333333333">P6</text>
    <g transform="translate(26.23102602061156,25.083333333333332)">
        <rect fill="#99188d" height="1.6" rx="0.3" ry="0.3" transform="skewX(-15)" width="2.8" x="0" y="0"/>
    </g>
    <text dominant-baseline="central" fill="white" font-family="Consolas" font-size="1.2" text-anchor="middle" x="27.41666666666666" y="25.883333333333333">D4</text>
    <g transform="translate(22.631026020611557,25.083333333333332)">
        <rect fill="#afa35e" height="1.6" rx="0.3" ry="0.3" transform="skewX(-15)" width="3.4" x="0" y="0"/>
    </g>
    <text dominant-baseline="central" fill="#423F42" font-family="Consolas" font-size="1.2" text-anchor="middle" x="24.11666666666666" y="25.883333333333333">PWM0</text>
    <rect fill="#4e4c4c" height="0.2" width="2.6" x="33.01666666666666" y="27.78333333333333"/>
    <g transform="translate(29.231026020611555,27.083333333333332)">
        <rect fill="#cd3c24" height="1.6" rx="0.3" ry="0.3" transform="skewX(-15)" width="3.4" x="0" y="0"/>
    </g>
    <text dominant-baseline="central" fill="white" font-family="Consolas" font-size="1.2" text-anchor="middle" x="30.716666666666658" y="27.883333333333333">3V3</text>
    <rect fill="#4e4c4c" height="0.2" width="2.6" x="52.61666666666666" y="27.78333333333333"/>
    <g transform="translate(56.03102602061156,27.083333333333332)">
        <rect fill="#000" height="1.6" rx="0.3" ry="0.3" transform="skewX(-15)" width="3.4" x="0" y="0"/>
    </g>
    <text dominant-baseline="central" fill="white" font-family="Consolas" font-size="1.2" text-anchor="middle" x="57.516666666666666" y="27.883333333333333">GND</text>
    <rect fill="#4e4c4c" height="0.2" width="2.6" x="52.61666666666666" y="25.78333333333333"/>
    <g transform="translate(56.03102602061156,25.083333333333332)">
        <rect fill="#800000" height="1.6" rx="0.3" ry="0.3" transform="skewX(-15)" width="3.4" x="0" y="0"/>
    </g>
    <text dominant-baseline="central" fill="white" font-family="Consolas" font-size="1.2" text-anchor="middle" x="57.516666666666666" y="25.883333333333333">P9</text>
    <g transform="translate(59.631026020611564,25.083333333333332)">
        <rect fill="#99188d" height="1.6" rx="0.3" ry="0.3" transform="skewX(-15)" width="2.8" x="0" y="0"/>
    </g>
    <text dominant-baseline="central" fill="white" font-family="Consolas" font-size="1.2" text-anchor="middle" x="60.81666666666666" y="25.883333333333333">D5</text>
    <g transform="translate(62.631026020611564,25.083333333333332)">
        <rect fill="#afa35e" height="1.6" rx="0.3" ry="0.3" transform="skewX(-15)" width="3.4" x="0" y="0"/>
    </g>
    <text dominant-baseline="central" fill="#423F42" font-family="Consolas" font-size="1.2" text-anchor="middle" x="64.11666666666666" y="25.883333333333333">PWM3</text>
    <rect fill="#4e4c4c" height="0.2" width="2.6" x="52.61666666666666" y="23.78333333333333"/>
    <g transform="translate(56.03102602061156,23.083333333333332)">
        <rect fill="#800000" height="1.6" rx="0.3" ry="0.3" transform="skewX(-15)" width="3.4" x="0" y="0"/>
    </g>
    <text dominant-baseline="central" fill="white" font-family="Consolas" font-size="1.2" text-anchor="middle" x="57.516666666666666" y="23.883333333333333">P0</text>
    <g transform="translate(59.631026020611564,23.083333333333332)">
        <rect fill="#99188d" height="1.6" rx="0.3" ry="0.3" transform="skewX(-15)" width="2.8" x="0" y="0"/>
    </g>
    <text dominant-baseline="central" fill="white" font-family="Consolas" font-size="1.2" text-anchor="middle" x="60.81666666666666" y="23.883333333333333">D6</text>
    <g transform="translate(62.631026020611564,23.083333333333332)">
        <rect fill="#dcd4ee" height="1.6" rx="0.3" ry="0.3" transform="skewX(-15)" width="3.4" x="0" y="0"/>
    </g>
    <text dominant-baseline="central" fill="#423F42" font-family="Consolas" font-size="1.2" text-anchor="middle" x="64.11666666666666" y="23.883333333333333">TX2</text>
    <rect fill="#4e4c4c" height="0.2" width="2.6" x="52.61666666666666" y="21.78333333333333"/>
    <g transform="translate(56.03102602061156,21.083333333333332)">
        <rect fill="#800000" height="1.6" rx="0.3" ry="0.3" transform="skewX(-15)" width="3.4" x="0" y="0"/>
    </g>
    <text dominant-baseline="central" fill="white" font-family="Consolas" font-size="1.2" text-anchor="middle" x="57.516666666666666" y="21.883333333333333">P21</text>
    <g transform="translate(59.631026020611564,21.083333333333332)">
        <rect fill="#99188d" height="1.6" rx="0.3" ry="0.3" transform="skewX(-15)" width="2.8" x="0" y="0"/>
    </g>
    <text dominant-baseline="central" fill="white" font-family="Consolas" font-size="1.2" text-anchor="middle" x="60.81666666666666" y="21.883333333333333">D7</text>
    <g transform="translate(62.631026020611564,21.083333333333332)">
        <rect fill="#f95" height="1.6" rx="0.3" ry="0.3" transform="skewX(-15)" width="3.4" x="0" y="0"/>
    </g>
    <text dominant-baseline="central" fill="#423F42" font-family="Consolas" font-size="1.2" text-anchor="middle" x="64.11666666666666" y="21.883333333333333">SDA1</text>
    <g transform="translate(66.23102602061155,21.083333333333332)">
        <rect fill="#ffe680" height="1.6" rx="0.3" ry="0.3" transform="skewX(-15)" width="3.4" x="0" y="0"/>
    </g>
    <text dominant-baseline="central" fill="#423F42" font-family="Consolas" font-size="1.2" text-anchor="middle" x="67.71666666666665" y="21.883333333333333">TMS</text>
    <g transform="translate(69.83102602061156,21.083333333333332)">
        <rect fill="#f68a1e" height="1.6" rx="0.3" ry="0.3" transform="skewX(-15)" width="3.4" x="0" y="0"/>
    </g>
    <text dominant-baseline="middle" fill="#423F42" font-family="Consolas" font-size="1.2" text-anchor="middle" x="71.31666666666666" y="20.870833333333334">___</text>
    <text dominant-baseline="central" fill="#423F42" font-family="Consolas" font-size="1.2" text-anchor="middle" x="71.31666666666666" y="21.989583333333332">FCS</text>
    <rect fill="#4e4c4c" height="0.2" width="2.6" x="52.61666666666666" y="19.78333333333333"/>
    <g transform="translate(56.03102602061156,19.083333333333332)">
        <rect fill="#800000" height="1.6" rx="0.3" ry="0.3" transform="skewX(-15)" width="3.4" x="0" y="0"/>
    </g>
    <text dominant-baseline="central" fill="white" font-family="Consolas" font-size="1.2" text-anchor="middle" x="57.516666666666666" y="19.883333333333333">P8</text>
    <g transform="translate(59.631026020611564,19.083333333333332)">
        <rect fill="#99188d" height="1.6" rx="0.3" ry="0.3" transform="skewX(-15)" width="2.8" x="0" y="0"/>
    </g>
    <text dominant-baseline="central" fill="white" font-family="Consolas" font-size="1.2" text-anchor="middle" x="60.81666666666666" y="19.883333333333333">D8</text>
    <g transform="translate(62.631026020611564,19.083333333333332)">
        <rect fill="#afa35e" height="1.6" rx="0.3" ry="0.3" transform="skewX(-15)" width="3.4" x="0" y="0"/>
    </g>
    <text dominant-baseline="central" fill="#423F42" font-family="Consolas" font-size="1.2" text-anchor="middle" x="64.11666666666666" y="19.883333333333333">PWM2</text>
    <rect fill="#4e4c4c" height="0.2" width="2.6" x="52.61666666666666" y="17.78333333333333"/>
    <g transform="translate(56.03102602061156,17.083333333333332)">
        <rect fill="#800000" height="1.6" rx="0.3" ry="0.3" transform="skewX(-15)" width="3.4" x="0" y="0"/>
    </g>
    <text dominant-baseline="central" fill="white" font-family="Consolas" font-size="1.2" text-anchor="middle" x="57.516666666666666" y="17.883333333333333">P7</text>
    <g transform="translate(59.631026020611564,17.083333333333332)">
        <rect fill="#99188d" height="1.6" rx="0.3" ry="0.3" transform="skewX(-15)" width="2.8" x="0" y="0"/>
    </g>
    <text dominant-baseline="central" fill="white" font-family="Consolas" font-size="1.2" text-anchor="middle" x="60.81666666666666" y="17.883333333333333">D9</text>
    <g transform="translate(62.631026020611564,17.083333333333332)">
        <rect fill="#afa35e" height="1.6" rx="0.3" ry="0.3" transform="skewX(-15)" width="3.4" x="0" y="0"/>
    </g>
    <text dominant-baseline="central" fill="#423F42" font-family="Consolas" font-size="1.2" text-anchor="middle" x="64.11666666666666" y="17.883333333333333">PWM1</text>
    <rect fill="#4e4c4c" height="0.2" width="2.6" x="52.61666666666666" y="15.783333333333331"/>
    <g transform="translate(56.03102602061156,15.08333333333333)">
        <rect fill="#800000" height="1.6" rx="0.3" ry="0.3" transform="skewX(-15)" width="3.4" x="0" y="0"/>
    </g>
    <text dominant-baseline="central" fill="white" font-family="Consolas" font-size="1.2" text-anchor="middle" x="57.516666666666666" y="15.883333333333331">P10</text>
    <g transform="translate(59.631026020611564,15.08333333333333)">
        <rect fill="#99188d" height="1.6" rx="0.3" ry="0.3" transform="skewX(-15)" width="2.8" x="0" y="0"/>
    </g>
    <text dominant-baseline="central" fill="white" font-family="Consolas" font-size="1.2" text-anchor="middle" x="60.81666666666666" y="15.883333333333331">D10</text>
    <g transform="translate(62.631026020611564,15.08333333333333)">
        <rect fill="#dcd4ee" height="1.6" rx="0.3" ry="0.3" transform="skewX(-15)" width="3.4" x="0" y="0"/>
    </g>
    <text dominant-baseline="central" fill="#423F42" font-family="Consolas" font-size="1.2" text-anchor="middle" x="64.11666666666666" y="15.883333333333331">RX1</text>
    <rect fill="#4e4c4c" height="0.2" width="2.6" x="52.61666666666666" y="13.783333333333331"/>
    <g transform="translate(56.03102602061156,13.08333333333333)">
        <rect fill="#800000" height="1.6" rx="0.3" ry="0.3" transform="skewX(-15)" width="3.4" x="0" y="0"/>
    </g>
    <text dominant-baseline="central" fill="white" font-family="Consolas" font-size="1.2" text-anchor="middle" x="57.516666666666666" y="13.883333333333331">P11</text>
    <g transform="translate(59.631026020611564,13.08333333333333)">
        <rect fill="#99188d" height="1.6" rx="0.3" ry="0.3" transform="skewX(-15)" width="2.8" x="0" y="0"/>
    </g>
    <text dominant-baseline="central" fill="white" font-family="Consolas" font-size="1.2" text-anchor="middle" x="60.81666666666666" y="13.883333333333331">D11</text>
    <g transform="translate(62.631026020611564,13.08333333333333)">
        <rect fill="#dcd4ee" height="1.6" rx="0.3" ry="0.3" transform="skewX(-15)" width="3.4" x="0" y="0"/>
    </g>
    <text dominant-baseline="central" fill="#423F42" font-family="Consolas" font-size="1.2" text-anchor="middle" x="64.11666666666666" y="13.883333333333331">TX1</text>
    <rect fill="#4e4c4c" height="0.2" width="2.6" x="36.21666666666666" y="31.383333333333333"/>
    <g transform="translate(32.43102602061156,30.683333333333334)">
        <rect fill="#800000" height="1.6" rx="0.3" ry="0.3" transform="skewX(-15)" width="3.4" x="0" y="0"/>
    </g>
    <text dominant-baseline="central" fill="white" font-family="Consolas" font-size="1.2" text-anchor="middle" x="33.916666666666664" y="31.483333333333334">P23</text>
    <g transform="translate(28.831026020611557,30.683333333333334)">
        <rect fill="#8ad039" height="1.6" rx="0.3" ry="0.3" transform="skewX(-15)" width="3.4" x="0" y="0"/>
    </g>
    <text dominant-baseline="central" fill="#423F42" font-family="Consolas" font-size="1.2" text-anchor="middle" x="30.31666666666666" y="31.483333333333334">ADC3</text>
    <g transform="translate(25.831026020611557,30.683333333333334)">
        <rect fill="#99188d" height="1.6" rx="0.3" ry="0.3" transform="skewX(-15)" width="2.8" x="0" y="0"/>
    </g>
    <text dominant-baseline="central" fill="white" font-family="Consolas" font-size="1.2" text-anchor="middle" x="27.01666666666666" y="31.483333333333334">D0</text>
    <g transform="translate(22.831026020611557,30.683333333333334)">
        <rect fill="#16a352" height="1.6" rx="0.3" ry="0.3" transform="skewX(-15)" width="2.8" x="0" y="0"/>
    </g>
    <text dominant-baseline="central" fill="white" font-family="Consolas" font-size="1.2" text-anchor="middle" x="24.01666666666666" y="31.483333333333334">A0</text>
    <g transform="translate(19.231026020611555,30.683333333333334)">
        <rect fill="#ffe680" height="1.6" rx="0.3" ry="0.3" transform="skewX(-15)" width="3.4" x="0" y="0"/>
    </g>
    <text dominant-baseline="central" fill="#423F42" font-family="Consolas" font-size="1.2" text-anchor="middle" x="20.716666666666658" y="31.483333333333334">TDO</text>
    <g transform="translate(15.631026020611559,30.683333333333334)">
        <rect fill="#f68a1e" height="1.6" rx="0.3" ry="0.3" transform="skewX(-15)" width="3.4" x="0" y="0"/>
    </g>
    <text dominant-baseline="central" fill="#423F42" font-family="Consolas" font-size="1.2" text-anchor="middle" x="17.11666666666666" y="31.483333333333334">FSO</text>
    <rect fill="#4e4c4c" height="0.2" width="2.6" x="36.21666666666666" y="33.38333333333333"/>
    <g transform="translate(32.43102602061156,32.68333333333334)">
        <rect fill="#800000" height="1.6" rx="0.3" ry="0.3" transform="skewX(-15)" width="3.4" x="0" y="0"/>
    </g>
    <text dominant-baseline="central" fill="white" font-family="Consolas" font-size="1.2" text-anchor="middle" x="33.916666666666664" y="33.483333333333334">P22</text>
    <g transform="translate(29.431026020611558,32.68333333333334)">
        <rect fill="#99188d" height="1.6" rx="0.3" ry="0.3" transform="skewX(-15)" width="2.8" x="0" y="0"/>
    </g>
    <text dominant-baseline="central" fill="white" font-family="Consolas" font-size="1.2" text-anchor="middle" x="30.61666666666666" y="33.483333333333334">D12</text>
    <g transform="translate(25.831026020611557,32.68333333333334)">
        <rect fill="#ffe680" height="1.6" rx="0.3" ry="0.3" transform="skewX(-15)" width="3.4" x="0" y="0"/>
    </g>
    <text dominant-baseline="central" fill="#423F42" font-family="Consolas" font-size="1.2" text-anchor="middle" x="27.31666666666666" y="33.483333333333334">TDI</text>
    <g transform="translate(22.231026020611555,32.68333333333334)">
        <rect fill="#f68a1e" height="1.6" rx="0.3" ry="0.3" transform="skewX(-15)" width="3.4" x="0" y="0"/>
    </g>
    <text dominant-baseline="central" fill="#423F42" font-family="Consolas" font-size="1.2" text-anchor="middle" x="23.716666666666658" y="33.483333333333334">FSI</text>
    <rect fill="#4e4c4c" height="0.2" width="2.6" x="36.21666666666666" y="35.38333333333333"/>
    <g transform="translate(32.43102602061156,34.68333333333334)">
        <rect fill="#800000" height="1.6" rx="0.3" ry="0.3" transform="skewX(-15)" width="3.4" x="0" y="0"/>
    </g>
    <text dominant-baseline="central" fill="white" font-family="Consolas" font-size="1.2" text-anchor="middle" x="33.916666666666664" y="35.483333333333334">P21</text>
    <g transform="translate(29.431026020611558,34.68333333333334)">
        <rect fill="#99188d" height="1.6" rx="0.3" ry="0.3" transform="skewX(-15)" width="2.8" x="0" y="0"/>
    </g>
    <text dominant-baseline="central" fill="white" font-family="Consolas" font-size="1.2" text-anchor="middle" x="30.61666666666666" y="35.483333333333334">D7</text>
    <g transform="translate(25.831026020611557,34.68333333333334)">
        <rect fill="#f95" height="1.6" rx="0.3" ry="0.3" transform="skewX(-15)" width="3.4" x="0" y="0"/>
    </g>
    <text dominant-baseline="central" fill="#423F42" font-family="Consolas" font-size="1.2" text-anchor="middle" x="27.31666666666666" y="35.483333333333334">SDA1</text>
    <g transform="translate(22.231026020611555,34.68333333333334)">
        <rect fill="#ffe680" height="1.6" rx="0.3" ry="0.3" transform="skewX(-15)" width="3.4" x="0" y="0"/>
    </g>
    <text dominant-baseline="central" fill="#423F42" font-family="Consolas" font-size="1.2" text-anchor="middle" x="23.716666666666658" y="35.483333333333334">TMS</text>
    <g transform="translate(18.631026020611557,34.68333333333334)">
        <rect fill="#f68a1e" height="1.6" rx="0.3" ry="0.3" transform="skewX(-15)" width="3.4" x="0" y="0"/>
    </g>
    <text dominant-baseline="middle" fill="#423F42" font-family="Consolas" font-size="1.2" text-anchor="middle" x="20.11666666666666" y="34.47083333333334">___</text>
    <text dominant-baseline="central" fill="#423F42" font-family="Consolas" font-size="1.2" text-anchor="middle" x="20.11666666666666" y="35.58958333333334">FCS</text>
    <rect fill="#4e4c4c" height="0.2" width="2.6" x="49.31666666666666" y="35.38333333333333"/>
    <g transform="translate(52.73102602061156,34.68333333333334)">
        <rect fill="#800000" height="1.6" rx="0.3" ry="0.3" transform="skewX(-15)" width="3.4" x="0" y="0"/>
    </g>
    <text dominant-baseline="central" fill="white" font-family="Consolas" font-size="1.2" text-anchor="middle" x="54.21666666666666" y="35.483333333333334">P20</text>
    <g transform="translate(56.33102602061157,34.68333333333334)">
        <rect fill="#99188d" height="1.6" rx="0.3" ry="0.3" transform="skewX(-15)" width="2.8" x="0" y="0"/>
    </g>
    <text dominant-baseline="central" fill="white" font-family="Consolas" font-size="1.2" text-anchor="middle" x="57.516666666666666" y="35.483333333333334">D13</text>
    <g transform="translate(59.33102602061157,34.68333333333334)">
        <rect fill="#f95" height="1.6" rx="0.3" ry="0.3" transform="skewX(-15)" width="3.4" x="0" y="0"/>
    </g>
    <text dominant-baseline="central" fill="#423F42" font-family="Consolas" font-size="1.2" text-anchor="middle" x="60.81666666666667" y="35.483333333333334">SCL1</text>
    <g transform="translate(62.93102602061156,34.68333333333334)">
        <rect fill="#ffe680" height="1.6" rx="0.3" ry="0.3" transform="skewX(-15)" width="3.4" x="0" y="0"/>
    </g>
    <text dominant-baseline="central" fill="#423F42" font-family="Consolas" font-size="1.2" text-anchor="middle" x="64.41666666666666" y="35.483333333333334">TCK</text>
    <g transform="translate(66.53102602061156,34.68333333333334)">
        <rect fill="#f68a1e" height="1.6" rx="0.3" ry="0.3" transform="skewX(-15)" width="3.4" x="0" y="0"/>
    </g>
    <text dominant-baseline="central" fill="#423F42" font-family="Consolas" font-size="1.2" text-anchor="middle" x="68.01666666666667" y="35.483333333333334">FSCK</text>
    <rect fill="#4e4c4c" height="0.2" width="2.6" x="49.31666666666666" y="33.38333333333333"/>
    <rect fill="#4e4c4c" height="0.2" width="2.6" x="49.31666666666666" y="31.383333333333333"/>
</svg>
